<?xml version="1.0" encoding="utf-8"?>
<!-- Generator: Adobe Illustrator 16.0.0, SVG Export Plug-In . SVG Version: 6.00 Build 0)  -->
<!DOCTYPE svg PUBLIC "-//W3C//DTD SVG 1.1//EN" "http://www.w3.org/Graphics/SVG/1.1/DTD/svg11.dtd">
<svg version="1.1" id="레이어_1" xmlns="http://www.w3.org/2000/svg" xmlns:xlink="http://www.w3.org/1999/xlink" x="0px"
	 y="0px" width="200px" height="200px" viewBox="0 0 200 200" enable-background="new 0 0 200 200" xml:space="preserve">
<path fill="#F4DF8D" d="M154.079,17.5H45.921C30.225,17.5,17.5,30.225,17.5,45.922V154.08c0,15.697,12.725,28.42,28.421,28.42
	h30.048c-0.814-55.304-1.761-86.72-2.831-94.23c-1.67-10.022-4.456-18.373-8.351-25.055c-3.622-5.285-4.038-9.461-1.252-12.527
	c2.779-3.06,8.351-4.032,16.702-2.922c26.165,4.456,42.313,8.631,48.438,12.527c3.341,1.95,5.494,4.11,6.472,6.472
	c0.973,2.368,1.318,4.456,1.044,6.265c-0.28,1.813-0.979,4.456-2.087,7.933c-1.116,3.484-1.814,6.335-2.088,8.56
	c-0.28,3.342-0.561,16.429-0.835,39.252c-0.256,20.803-0.278,38.705-0.067,53.727h22.965c15.697,0,28.421-12.723,28.421-28.42
	V45.922C182.5,30.225,169.776,17.5,154.079,17.5z"/>
<path fill="#F4DF8D" d="M119.667,65c-2.338,0-4.415,1.098-5.758,2.801l-24.362-6.09c-0.61-3.435-3.604-6.044-7.213-6.044
	C78.283,55.667,75,58.95,75,63s3.283,7.333,7.333,7.333c0.506,0,1-0.051,1.478-0.149L96.42,92.342
	C95.531,93.556,95,95.047,95,96.667c0,2.98,1.781,5.54,4.333,6.687V182.5h6v-79.146c2.553-1.146,4.333-3.706,4.333-6.687
	c0-1.353-0.373-2.616-1.012-3.704l9.573-13.439c0.465,0.093,0.946,0.143,1.438,0.143c4.05,0,7.333-3.283,7.333-7.333
	S123.717,65,119.667,65z M102.333,89.333c-0.237,0-0.47,0.014-0.701,0.036L89.39,67.856l23.063,5.766
	c0.154,0.868,0.46,1.682,0.892,2.415l-9.573,13.439C103.307,89.384,102.826,89.333,102.333,89.333z"/>
</svg>
